<svg width="44" height="45" viewBox="0 0 44 45" fill="none" xmlns="http://www.w3.org/2000/svg">
    <path d="M44 7.05297H11.55L10.6214 1.65161H2.39928C1.0721 1.65161 0 2.72571 0 4.05188V6.45116H6.57808L10.8107 31.0706C10.9043 31.6127 11.4255 32.0521 11.9764 32.0521H40.4001C41.7273 32.0521 42.8014 30.979 42.8014 29.6498V27.2525H15.0234L14.4385 23.8509H36.4006C39.051 23.8509 41.5539 21.7306 41.9913 19.1181L44 7.05297Z"
          fill="white"/>
    <path d="M19.3995 43.3032C21.6914 43.3032 23.5494 41.4453 23.5494 39.1533C23.5494 36.8614 21.6914 35.0034 19.3995 35.0034C17.1075 35.0034 15.2496 36.8614 15.2496 39.1533C15.2496 41.4453 17.1075 43.3032 19.3995 43.3032Z"
          fill="white"/>
    <path d="M29.6542 39.1521C29.6542 41.4428 31.5104 43.301 33.8011 43.301C36.0938 43.301 37.954 41.4428 37.954 39.1521C37.954 36.8615 36.0938 35.0012 33.8011 35.0012C31.5104 35.0012 29.6542 36.8625 29.6542 39.1521Z"
          fill="white"/>
</svg>
