<svg width="60" height="61" viewBox="0 0 60 61" fill="none" xmlns="http://www.w3.org/2000/svg">
    <path d="M55.313 30.5C55.313 44.473 43.973 55.813 30 55.813C16.027 55.813 4.68701 44.473 4.68701 30.5C4.68721 16.527 16.027 5.18701 30 5.18701C43.973 5.18721 55.313 16.527 55.313 30.5V30.5Z"
          stroke="white" stroke-width="8.125" stroke-linecap="round" stroke-linejoin="round"/>
    <path fill-rule="evenodd" clip-rule="evenodd"
          d="M55.3128 30.4999C55.3128 44.4725 43.9723 55.8131 29.9997 55.8131C16.0271 55.8131 4.6875 44.4725 4.6875 30.4999C4.68722 16.5273 16.0271 5.18677 29.9997 5.18677C43.9723 5.18724 55.3128 16.5273 55.3128 30.4999Z"
          fill="white" stroke="black" stroke-width="3.12501" stroke-linecap="round" stroke-linejoin="round"/>
    <path d="M38.7848 6.70642L36.1963 7.64396L39.665 11.7689L36.0087 16.1756L34.884 15.2376L36.1963 14.2068L32.7275 13.2687L28.3217 18.894L29.9154 19.1754L30.4782 21.2381L32.0718 19.0816L31.7904 17.3941L32.8213 15.4252H33.6655L32.5399 17.5817L33.3841 18.7064L33.2903 21.0505L27.8527 22.5503L24.3839 24.7068L25.0405 27.519L21.6656 27.1438L21.1027 29.2065L20.4461 30.5187L21.5718 31.1754L22.1336 31.5506L24.1025 31.6444L25.5086 29.0189H26.259L26.8218 28.1756L29.3525 27.3314L31.8842 30.7063L32.8213 29.7693L30.4782 26.9562H31.4152L34.9778 31.7382L36.0087 29.0189L37.4157 28.8313L37.7899 25.6439L42.4781 26.5819L42.3843 27.7066L37.0405 29.6755L37.6961 31.2692L41.4463 30.5187L41.3525 33.9875L38.728 34.9255L34.7902 34.2689L34.1345 35.3945L29.7277 34.1751L29.6339 32.0186L19.9781 33.1442L19.5091 35.2069L16.1341 37.2687L15.3837 41.7692L19.0401 47.0193L26.9156 48.2377L29.2587 49.1758L28.8845 50.7694L30.8524 52.4569L31.2276 53.394L30.103 54.5196L32.8213 55.6443M43.04 52.2134L43.8842 48.8006L49.0404 40.5508L46.3221 41.863L40.9782 35.8626L41.9153 35.4874L46.7901 39.988L51.1969 33.4256L49.8837 32.9566L48.6652 34.3627L46.7901 32.3L47.6344 31.7382L50.1651 32.4876L53.2596 30.1445H55.4151L43.04 52.2134Z"
          stroke="black" stroke-width="2.49995" stroke-linecap="round" stroke-linejoin="round"/>
    <path d="M8.35266 17.3942L10.8841 16.4562V15.5191H11.5397V16.4562L12.853 16.3624L16.6031 10.6443L12.2901 12.4256V12.3318"
          stroke="black" stroke-width="2.49995" stroke-linecap="round" stroke-linejoin="round"/>
    <path d="M16.7898 14.6749L20.6338 13.0812L24.1025 12.6132L27.8527 8.67532L23.5407 8.11279L20.6338 11.3L16.7898 14.6749V14.6749Z"
          stroke="black" stroke-width="2.49995" stroke-linecap="round" stroke-linejoin="round"/>
    <path d="M24.0087 23.3937L26.4466 22.738L25.2281 20.4877L25.8838 19.9249L25.1343 19.1755L24.0087 23.3937Z"
          stroke="black" stroke-width="2.49995" stroke-linecap="round" stroke-linejoin="round"/>
    <path d="M23.6345 22.269L23.9149 20.7691L22.3212 21.8L23.6345 22.269Z" stroke="black" stroke-width="2.49995"
          stroke-linecap="round" stroke-linejoin="round"/>
</svg>
