<svg width="44" height="45" viewBox="0 0 44 45" fill="none" xmlns="http://www.w3.org/2000/svg">
    <path d="M21.9452 26.5184C15.5185 26.5184 10.3114 20.5711 10.3114 13.2402C10.3114 5.91014 15.5185 0.476807 21.9452 0.476807C28.373 0.476807 33.5844 5.91014 33.5844 13.2402C33.5844 20.5711 28.3729 26.5184 21.9452 26.5184ZM3.84835 44.4685C3.84835 44.4685 1.38066 44.6237 0.29372 43.1968C-0.293588 42.4259 0.115531 40.8638 0.517163 39.9921L1.50078 37.8565C1.50078 37.8565 4.22103 32.0601 7.31762 28.7012C9.2198 26.6415 11.4822 27.1106 12.9455 27.7804C13.8467 28.1926 14.8658 29.3935 15.6105 30.0299C16.6367 30.9068 18.4484 31.9034 21.4102 31.9595H23.2273C26.1873 31.9034 27.999 30.9068 29.0244 30.0299C29.7683 29.3936 30.7592 28.1555 31.6523 27.7297C32.9953 27.0892 35.0394 26.6951 36.8918 28.7014C39.9894 32.0604 42.4426 37.9619 42.4426 37.9619L43.4507 40.0561C43.8678 40.9218 44.2951 42.4762 43.7241 43.2573C42.7052 44.654 40.4175 44.4687 40.4175 44.4687L3.84835 44.4685Z"
          fill="white"/>
</svg>
